<svg width="858" height="916" viewBox="0 0 858 916" fill="none" xmlns="http://www.w3.org/2000/svg">
<path fill-rule="evenodd" clip-rule="evenodd" d="M412.97 -4.2928C484.395 -52.5929 562.991 -94.3716 650.466 -85.4748C749.89 -75.3628 864.191 -44.633 924.996 47.7836C985.302 139.443 953.072 258.341 947.399 365.834C942.704 454.799 943.994 549.639 894.989 616.381C848.54 679.641 761.784 676.54 694.076 710.843C617.389 749.695 559.448 851.175 472.527 830.411C385.974 809.734 352.652 689.096 291.514 614.673C226.753 535.84 107.205 483.613 104.096 381.922C100.945 278.856 218.732 240.403 277.813 166.528C324.274 108.434 352.83 36.3765 412.97 -4.2928Z" fill="url(#paint0_linear)"/>
<defs>
<linearGradient id="paint0_linear" x1="418.756" y1="-24.2978" x2="723.539" y2="751.073" gradientUnits="userSpaceOnUse">
<stop stop-color="#965BF7"/>
<stop offset="0.683333" stop-color="#74C7F6"/>
<stop offset="1" stop-color="#6ECBFF"/>
</linearGradient>
</defs>
</svg>
