<svg width="967" height="939" viewBox="0 0 967 939" fill="none" xmlns="http://www.w3.org/2000/svg">
<path fill-rule="evenodd" clip-rule="evenodd" d="M823.037 72.7378C893.741 112.222 961.935 160.531 991.018 237.967C1024.07 325.981 1045.93 435.329 993.274 526.003C941.048 615.934 827.082 639.609 733.868 680.766C656.72 714.83 577.111 756.441 500.203 743.708C427.307 731.64 393.626 657.286 336.306 614.948C271.384 566.996 161.38 561.586 142.558 479.545C123.815 397.851 211.822 318.253 249.134 234.986C288.657 146.786 282.771 23.836 367.409 -22.2346C453.19 -68.9274 534.972 13.792 622.124 31.9582C690.659 46.2439 763.503 39.4912 823.037 72.7378Z" fill="url(#paint0_linear)" fill-opacity="0.7"/>
<path fill-rule="evenodd" clip-rule="evenodd" d="M521.97 -4.2928C593.395 -52.5929 671.991 -94.3716 759.466 -85.4748C858.89 -75.3628 973.191 -44.633 1034 47.7836C1094.3 139.443 1062.07 258.341 1056.4 365.834C1051.7 454.799 1052.99 549.639 1003.99 616.381C957.54 679.641 870.784 676.54 803.076 710.843C726.389 749.695 668.448 851.175 581.527 830.411C494.974 809.734 461.652 689.096 400.514 614.673C335.753 535.84 216.205 483.613 213.096 381.922C209.945 278.856 327.732 240.403 386.813 166.528C433.274 108.434 461.83 36.3765 521.97 -4.2928Z" fill="url(#paint1_linear)"/>
<defs>
<linearGradient id="paint0_linear" x1="842.364" y1="69.0598" x2="314.636" y2="656.94" gradientUnits="userSpaceOnUse">
<stop stop-color="#ABE1F8"/>
<stop offset="1" stop-color="#D99BFF"/>
<stop offset="1" stop-color="#D99BFF"/>
</linearGradient>
<linearGradient id="paint1_linear" x1="527.756" y1="-24.2978" x2="832.539" y2="751.073" gradientUnits="userSpaceOnUse">
<stop stop-color="#965BF7"/>
<stop offset="0.683333" stop-color="#74C7F6"/>
<stop offset="1" stop-color="#6ECBFF"/>
</linearGradient>
</defs>
</svg>
